<?xml version="1.0" standalone="no"?><!DOCTYPE svg PUBLIC "-//W3C//DTD SVG 1.1//EN" "http://www.w3.org/Graphics/SVG/1.1/DTD/svg11.dtd"><svg t="1677552941312" class="icon" viewBox="0 0 1024 1024" version="1.1" xmlns="http://www.w3.org/2000/svg" p-id="3186" width="32" height="32" xmlns:xlink="http://www.w3.org/1999/xlink"><path d="M512 949.138286c238.72 0 437.138286-198.418286 437.138286-437.138286 0-239.140571-198.857143-437.138286-437.577143-437.138286C272.438857 74.861714 74.88 272.859429 74.88 512c0 238.72 197.997714 437.138286 437.138286 437.138286zM317.44 529.572571c0-106.715429 87.844571-190.72 185.984-190.72a91.428571 91.428571 0 0 1 11.574857 0.859429l-30.866286-30.848c-4.699429-5.156571-7.277714-12.434286-7.277714-20.150857 0-15.433143 11.574857-27.849143 27.428572-27.849143 7.716571 0 14.994286 2.998857 20.150857 8.557714l83.565714 85.284572c9.856 10.294857 10.276571 30.006857 0 40.301714l-84.425143 83.986286c-5.156571 5.156571-12.434286 8.576-19.291428 8.576-15.853714 0-27.428571-12.434286-27.428572-27.428572 0-8.137143 2.56-14.994286 8.137143-20.150857l42.002286-41.563428c-4.278857-0.859429-9.856-0.859429-15.414857-0.859429-75.008 0-134.582857 59.154286-134.582858 133.302857 0 74.971429 59.574857 134.985143 134.582858 134.985143 74.569143 0 134.125714-59.995429 134.125714-135.003429 0-15.853714 13.293714-29.129143 30.006857-29.129142 16.274286 0 29.568 13.275429 29.568 29.129142 0 107.574857-86.125714 194.998857-193.700571 194.998858s-194.157714-87.424-194.157715-196.278858z" p-id="3187" fill="#02beb9"></path></svg>